<svg xmlns="http://www.w3.org/2000/svg" version="1.1" xmlns:xlink="http://www.w3.org/1999/xlink" xmlns:svgjs="http://svgjs.dev/svgjs" width="1000" height="444" viewBox="0 0 1000 444"><g transform="matrix(1,0,0,1,-0.6060378777276014,0.6220546543414969)"><svg viewBox="0 0 396 176" data-background-color="#ffffff" preserveAspectRatio="xMidYMid meet" height="444" width="1000" xmlns="http://www.w3.org/2000/svg" xmlns:xlink="http://www.w3.org/1999/xlink"><defs></defs><g id="tight-bounds" transform="matrix(1,0,0,1,0.23999099958012948,-0.24658022334257623)"><svg viewBox="0 0 395.52 176.49316044668515" height="176.49316044668515" width="395.52"><g><svg viewBox="0 0 395.52 176.49316044668515" height="176.49316044668515" width="395.52"><g><svg viewBox="0 0 395.52 176.49316044668515" height="176.49316044668515" width="395.52"><g><svg viewBox="0 0 395.52 176.49316044668515" height="176.49316044668515" width="395.52"><g><svg viewBox="0 0 395.52 134.04230793068515" height="134.04230793068515" width="395.52"><rect width="395.52" height="134.04230793068515" x="0" y="0" opacity="1" fill="#ff0033" data-fill-palette-color="tertiary"></rect><g transform="matrix(1,0,0,1,23.461705032,23.461705032)"><svg width="348.596589936" viewBox="0.9500000476837158 -36 144.04000854492188 36" height="87.11889786668516" data-palette-color="#ffffff"><path d="M7.3-36L16.3-36 10 0 0.95 0 7.3-36ZM23.4-36L37.9-36Q43.6-36 46-33.5L46-33.5Q47.8-31.6 47.8-28.7L47.8-28.7Q47.8-27.7 47.6-26.6L47.6-26.6 46.9-22.7Q46.3-19.45 44.82-17.45 43.35-15.45 41.55-14.6L41.55-14.6 46.1 0 36 0 31.8-13.45 28.7-13.45 26.65 0 17.05 0 23.4-36ZM34.75-28.2L34.75-28.2 31-28.2 29.7-19.5 33.2-19.5Q35.85-19.5 37-20.78 38.15-22.05 38.15-24.15L38.15-24.15Q38.15-28.2 34.75-28.2ZM75.85-21L74.5-13.2 61.2-13.2 58.9 0 49.85 0 56.2-36 81.3-36 79.9-28.2 63.8-28.2 62.55-21 75.85-21ZM106.14 0L96.64 0 96.94-7.85 88.59-7.85 86.14 0 76.59 0 89.44-36 105.94-36 106.14 0ZM97.74-27.25L94.59-27.25 90.64-14.55 97.19-14.55 97.74-27.25ZM135.99-36L144.99-36 138.69 0 129.64 0 123.34-19.7 119.94 0 110.89 0 117.24-36 126.54-36 132.74-17.6 135.99-36Z" opacity="1" transform="matrix(1,0,0,1,0,0)" fill="#ffffff" class="undefined-text-0" data-fill-palette-color="quaternary" id="text-0"></path></svg></g></svg></g><g transform="matrix(1,0,0,1,0,145.77316044668515)"><svg viewBox="0 0 395.52 30.72" height="30.72" width="395.52"><g transform="matrix(1,0,0,1,0,0)"><svg width="395.52" viewBox="0 -50 643.719970703125 43.75" height="30.72" data-palette-color="#001f3f"><path d="M12.5-6.25L6.25-6.25 6.25-12.5 0-12.5 0-50 12.5-50 12.5-25 18.75-25 18.75-50 25-50 25-25 31.25-25 31.25-50 43.75-50 43.75-12.5 37.5-12.5 37.5-6.25 31.25-6.25 31.25-12.5 25-12.5 25-18.75 18.75-18.75 18.75-12.5 12.5-12.5 12.5-6.25ZM93.75-6.25L50-6.25 50-50 93.75-50 93.75-43.75 62.5-43.75 62.5-31.25 87.5-31.25 87.5-25 62.5-25 62.5-12.5 93.75-12.5 93.75-6.25ZM137.5-6.25L100-6.25 100-50 137.5-50 137.5-43.75 143.75-43.75 143.75-31.25 137.5-31.25 137.5-25 143.75-25 143.75-12.5 137.5-12.5 137.5-6.25ZM112.5-43.75L112.5-31.25 131.25-31.25 131.25-43.75 112.5-43.75ZM112.5-25L112.5-12.5 131.25-12.5 131.25-25 112.5-25ZM231.24-6.25L199.99-6.25 199.99-50 231.24-50 231.24-43.75 237.49-43.75 237.49-37.5 243.74-37.5 243.74-18.75 237.49-18.75 237.49-12.5 231.24-12.5 231.24-6.25ZM212.49-43.75L212.49-12.5 224.99-12.5 224.99-18.75 231.24-18.75 231.24-37.5 224.99-37.5 224.99-43.75 212.49-43.75ZM293.74-6.25L249.99-6.25 249.99-50 293.74-50 293.74-43.75 262.49-43.75 262.49-31.25 287.49-31.25 287.49-25 262.49-25 262.49-12.5 293.74-12.5 293.74-6.25ZM324.99-6.25L318.74-6.25 318.74-12.5 312.49-12.5 312.49-18.75 306.24-18.75 306.24-25 299.99-25 299.99-50 312.49-50 312.49-31.25 318.74-31.25 318.74-25 324.99-25 324.99-31.25 331.24-31.25 331.24-50 343.74-50 343.74-25 337.49-25 337.49-18.75 331.24-18.75 331.24-12.5 324.99-12.5 324.99-6.25ZM393.73-6.25L349.98-6.25 349.98-50 393.73-50 393.73-43.75 362.48-43.75 362.48-31.25 387.48-31.25 387.48-25 362.48-25 362.48-12.5 393.73-12.5 393.73-6.25ZM443.73-6.25L406.23-6.25 406.23-50 418.73-50 418.73-12.5 443.73-12.5 443.73-6.25ZM487.48-6.25L456.23-6.25 456.23-12.5 449.98-12.5 449.98-43.75 456.23-43.75 456.23-50 487.48-50 487.48-43.75 493.73-43.75 493.73-12.5 487.48-12.5 487.48-6.25ZM462.48-43.75L462.48-12.5 481.23-12.5 481.23-43.75 462.48-43.75ZM512.48-6.25L499.98-6.25 499.98-50 537.48-50 537.48-43.75 543.73-43.75 543.73-25 537.48-25 537.48-18.75 512.48-18.75 512.48-6.25ZM512.48-43.75L512.48-25 531.23-25 531.23-43.75 512.48-43.75ZM593.72-6.25L549.97-6.25 549.97-50 593.72-50 593.72-43.75 562.47-43.75 562.47-31.25 587.47-31.25 587.47-25 562.47-25 562.47-12.5 593.72-12.5 593.72-6.25ZM612.47-6.25L599.97-6.25 599.97-50 637.47-50 637.47-43.75 643.72-43.75 643.72-25 631.22-25 631.22-18.75 637.47-18.75 637.47-12.5 643.72-12.5 643.72-6.25 624.97-6.25 624.97-12.5 618.72-12.5 618.72-18.75 612.47-18.75 612.47-6.25ZM612.47-43.75L612.47-25 624.97-25 624.97-31.25 631.22-31.25 631.22-43.75 612.47-43.75Z" opacity="1" transform="matrix(1,0,0,1,0,0)" fill="#001f3f" class="undefined-text-1" data-fill-palette-color="secondary" id="text-1"></path></svg></g></svg></g></svg></g></svg></g><g></g></svg></g></svg><rect width="395.52" height="176.49316044668515" fill="none" stroke="none" visibility="hidden"></rect></g></svg></g></svg>